Coordinates
version=1
nRows=8
nColumns=40
inDegrees=yes

Units are S.I. units (second, meters, Newtons, ...)
Angles are in degrees.

endheader
time	pelvis_tilt	pelvis_list	pelvis_rotation	pelvis_tx	pelvis_ty	pelvis_tz	hip_flexion_r	hip_adduction_r	hip_rotation_r	knee_angle_r	knee_angle_r_beta	ankle_angle_r	subtalar_angle_r	mtp_angle_r	hip_flexion_l	hip_adduction_l	hip_rotation_l	knee_angle_l	knee_angle_l_beta	ankle_angle_l	subtalar_angle_l	mtp_angle_l	lumbar_extension	lumbar_bending	lumbar_rotation	arm_flex_r	arm_add_r	arm_rot_r	elbow_flex_r	pro_sup_r	wrist_flex_r	wrist_dev_r	arm_flex_l	arm_add_l	arm_rot_l	elbow_flex_l	pro_sup_l	wrist_flex_l	wrist_dev_l
     27.50000000	     -5.60361138	     -3.60356109	      3.62938130	      1.09693504	      0.92844651	      0.51236515	     12.97774886	      1.94291356	    -15.11988745	     17.88223597	     17.88223597	     11.85053497	     -5.48381249	     -3.16284864	     34.69185424	    -11.40422495	      0.60394983	     45.16569308	     45.16569308	     11.15835334	    -18.87203730	     16.55311806	    -11.62746639	      4.24254879	      1.46104543	     11.93326173	    -22.05861867	     -4.08285074	     61.66622460	     45.25334711	      0.00000000	      0.00000000	      5.33446369	    -12.33032258	    -10.44428806	     42.24485567	     46.72038632	      0.00000000	      0.00000000
     27.51285714	     -5.75327961	     -3.43415522	      4.18030133	      1.09544746	      0.92860183	      0.51178190	     12.66687952	      1.71157978	    -15.56901212	     17.54924211	     17.54924211	     11.89728804	     -5.41172851	     -3.54269026	     34.73255401	    -10.62749222	      0.79960470	     41.69312037	     41.69312037	     10.50652664	    -18.64311095	     14.61527668	    -11.64797299	      4.13102602	      1.52564178	     11.68416561	    -22.28980025	     -4.28344040	     63.84690157	     45.19579676	      0.00000000	      0.00000000	      6.05700412	    -12.26556980	    -10.43382221	     40.75923399	     46.69985388	      0.00000000	      0.00000000
     27.52571429	     -5.96281407	     -3.20574464	      4.66181965	      1.09392938	      0.92866761	      0.51112588	     12.47014754	      1.44220611	    -15.74591360	     17.30892021	     17.30892021	     12.01925380	     -5.66078165	     -3.55595043	     34.81214900	     -9.72003836	      1.22764142	     38.43661803	     38.43661803	     10.54044951	    -18.10740423	     14.63569456	    -11.57998948	      3.86368877	      1.50530236	     12.02188343	    -22.27643157	     -4.36924269	     64.31670294	     45.18680476	      0.00000000	      0.00000000	      6.21898183	    -12.30182302	    -10.40564157	     40.58769217	     46.69436352	      0.00000000	      0.00000000
     27.53857143	     -6.15579432	     -3.05513193	      5.14451279	      1.09257349	      0.92865420	      0.51039545	     12.20866531	      1.22529689	    -16.20073149	     17.00817320	     17.00817320	     12.09371283	     -5.61147675	     -3.84858331	     34.75348980	     -8.91168035	      1.75461890	     35.15128461	     35.15128461	      9.71199685	    -17.49041372	     12.45994311	    -11.50426269	      3.73727203	      1.53958581	     12.03134894	    -22.19495988	     -4.58115771	     65.82354806	     45.15576162	      0.00000000	      0.00000000	      6.70113039	    -12.34285777	    -10.35668373	     39.37814924	     46.66904644	      0.00000000	      0.00000000
     27.55142857	     -6.34826353	     -2.90386657	      5.56369847	      1.09126908	      0.92853382	      0.50962040	     12.01155248	      1.03211433	    -16.30405003	     16.82745829	     16.82745829	     12.26750730	     -5.79790229	     -3.88910447	     34.78895550	     -8.18123195	      2.28005977	     32.39289039	     32.39289039	      9.90001785	    -16.15207869	     12.42843843	    -11.41767149	      3.54485451	      1.52481398	     12.36359091	    -22.17859020	     -4.62000182	     66.19402836	     45.14805542	      0.00000000	      0.00000000	      6.84312205	    -12.28478496	    -10.32100408	     39.27021310	     46.66344676	      0.00000000	      0.00000000
     27.56428571	     -6.49689751	     -2.75134461	      5.92295302	      1.09018904	      0.92849178	      0.50888023	     11.70660049	      0.85503184	    -16.47249196	     16.56941036	     16.56941036	     12.42819564	     -5.88301208	     -3.94059040	     34.70698366	     -7.54392605	      2.69745995	     29.84863994	     29.84863994	     10.01697497	    -14.64186577	     12.25158184	    -11.35758987	      3.34525892	      1.45842221	     12.69233535	    -21.93299510	     -4.59498971	     66.76311328	     45.13138968	      0.00000000	      0.00000000	      6.91269458	    -12.35677631	    -10.29989481	     38.95944901	     46.65732755	      0.00000000	      0.00000000
     27.57714286	     -6.64786642	     -2.76481216	      6.28923822	      1.08923457	      0.92823215	      0.50808723	     11.45370937	      0.83836859	    -16.73846469	     16.39056173	     16.39056173	     12.61409393	     -5.97495723	     -4.01374775	     34.73300574	     -7.09265240	      3.18618144	     27.76708315	     27.76708315	     10.12669004	    -13.16452018	     12.12176101	    -11.22146048	      3.35975932	      1.45708573	     13.01809953	    -21.71440706	     -4.54883780	     67.24321549	     45.11636197	      0.00000000	      0.00000000	      7.01127444	    -12.37753685	    -10.27815228	     38.71935547	     46.65285418	      0.00000000	      0.00000000
     27.59000000	     -6.60837535	     -2.69098068	      6.52092848	      1.08881834	      0.92823587	      0.50740001	     10.80435017	      0.80203081	    -16.95166745	     15.91459847	     15.91459847	     12.68025761	     -5.74290739	     -4.50048987	     34.34468201	     -6.80377314	      3.04386114	     25.73095185	     25.73095185	      9.37218664	    -11.57677758	      9.43726992	    -11.28133710	      3.26091160	      1.80080707	     12.66700555	    -21.61324639	     -4.54319356	     69.02883764	     45.07861321	      0.00000000	      0.00000000	      7.81211085	    -12.31400061	    -10.28446103	     36.78812862	     46.62314936	      0.00000000	      0.00000000
